HIERARCHY
ROOT root
{
	OFFSET	0	13.1	24.9
	CHANNELS 6  Xposition Yposition Zposition Xrotation Yrotation Zrotation
	JOINT spine_1
	{
		OFFSET	0	9.99999	0
		CHANNELS 3  Xrotation Yrotation Zrotation
		JOINT spine_2
		{
			OFFSET	0	112	-10
			CHANNELS 3  Xrotation Yrotation Zrotation
			JOINT spine_3
			{
				OFFSET	0	206.5	19.3
				CHANNELS 3  Xrotation Yrotation Zrotation
				JOINT spine_4
				{
					OFFSET	0	110.4	14.6
					CHANNELS 3  Xrotation Yrotation Zrotation
					JOINT neck_1
					{
						OFFSET	0	71.8	-50.3
						CHANNELS 3  Xrotation Yrotation Zrotation
						JOINT neck_2
						{
							OFFSET	0	86.2	-25.8
							CHANNELS 3  Xrotation Yrotation Zrotation
							JOINT head_ee
							{
								OFFSET	0	179.8	-8.7
								CHANNELS 3  Xrotation Yrotation Zrotation
								End Site
								{
									OFFSET	1	0	0
								}
							}
						}
					}
					JOINT left_clavicle
					{
						OFFSET	-43.2	22.4	-70.8
						CHANNELS 3  Xrotation Yrotation Zrotation
						JOINT left_shoulder
						{
							OFFSET	-93.9	-5.79999	48.7
							CHANNELS 3  Xrotation Yrotation Zrotation
							JOINT left_elbow
							{
								OFFSET	-291.4	-30.8	15.2
								CHANNELS 3  Xrotation Yrotation Zrotation
								JOINT left_lowarm_twist
								{
									OFFSET	-110.7	-3.89999	13.6
									CHANNELS 3  Xrotation Yrotation Zrotation
									JOINT left_hand
									{
										OFFSET	-110.7	-3.89999	13.6
										CHANNELS 3  Xrotation Yrotation Zrotation
										JOINT left_ee
										{
											OFFSET	-80.8	-5.10001	12.1
											CHANNELS 3  Xrotation Yrotation Zrotation
											End Site
											{
												OFFSET	1	0	0
											}
										}
									}
								}
							}
						}
					}
					JOINT right_clavicle
					{
						OFFSET	43.2	22.4	-70.8
						CHANNELS 3  Xrotation Yrotation Zrotation
						JOINT right_shoulder
						{
							OFFSET	93.9	-5.79999	48.7
							CHANNELS 3  Xrotation Yrotation Zrotation
							JOINT right_elbow
							{
								OFFSET	291.4	-30.8	15.2
								CHANNELS 3  Xrotation Yrotation Zrotation
								JOINT right_lowarm_twist
								{
									OFFSET	110.7	-3.89999	13.6
									CHANNELS 3  Xrotation Yrotation Zrotation
									JOINT right_hand
									{
										OFFSET	110.7	-3.89999	13.6
										CHANNELS 3  Xrotation Yrotation Zrotation
										JOINT right_ee
										{
											OFFSET	80.8	-5.10001	12.1
											CHANNELS 3  Xrotation Yrotation Zrotation
											End Site
											{
												OFFSET	1	0	0
											}
										}
									}
								}
							}
						}
					}
				}
			}
		}
	}
	JOINT left_hip
	{
		OFFSET	-82.8	-127.5	0.300001
		CHANNELS 3  Xrotation Yrotation Zrotation
		JOINT left_knee
		{
			OFFSET	-28.2	-396.7	2.2
			CHANNELS 3  Xrotation Yrotation Zrotation
			JOINT left_ankle
			{
				OFFSET	-11.7	-411.3	35.4
				CHANNELS 3  Xrotation Yrotation Zrotation
				JOINT left_toes
				{
					OFFSET	0	-60	-88.6
					CHANNELS 3  Xrotation Yrotation Zrotation
					JOINT left_foot_ee
					{
						OFFSET	-22.5	-16.5	-42.2
						CHANNELS 3  Xrotation Yrotation Zrotation
						End Site
						{
							OFFSET	1	0	0
						}
					}
				}
			}
		}
	}
	JOINT right_hip
	{
		OFFSET	82.8	-127.5	0.300001
		CHANNELS 3  Xrotation Yrotation Zrotation
		JOINT right_knee
		{
			OFFSET	28.2	-396.7	2.2
			CHANNELS 3  Xrotation Yrotation Zrotation
			JOINT right_ankle
			{
				OFFSET	11.7	-411.3	35.4
				CHANNELS 3  Xrotation Yrotation Zrotation
				JOINT right_toes
				{
					OFFSET	0	-60	-88.6
					CHANNELS 3  Xrotation Yrotation Zrotation
					JOINT right_foot_ee
					{
						OFFSET	22.5	-16.5	-42.2
						CHANNELS 3  Xrotation Yrotation Zrotation
						End Site
						{
							OFFSET	1	0	0
						}
					}
				}
			}
		}
	}
}
MOTION
Frames: 13
Frame Time: 0.02
391.205445378 736.184 -1203.78999124 -178.325974532 -56.4038770448 179.184430081 -1.87517 0.436514 3.58203 -1.86806 0.207847 3.60251 -1.84794 -0.669372 3.54594 -1.86547 -0.101336 3.60707 1.82983 3.7607 -15.1397 3.08805 19.3123 -16.6515 -0.0 0.0 -0.0 2.48999 4.66543 5.13394 -3.80652 11.0304 62.163 0.754484 -20.4932 0.136388 16.7314 0.283097 -2.11096 1.13216 -8.04477 4.23265 -0.0 0.0 -0.0 9.78983 25.41 -18.4559 -3.44697 -9.49029 -68.1488 0.39838 11.1638 -0.0389346 -2.17648 0.0817535 -0.265886 1.37055 23.9749 1.20584 0.0 0.0 0.0 6.78536 23.9838 3.15332 -1.68496 0.0657014 0.250226 18.8694 6.29742 -2.58991 -6.57475 0.0 0.0 -0.0 0.0 -0.0 2.71766 -17.5589 -3.8239 5.11706 0.244283 0.746802 9.78163 0.128453 1.40517 -26.4123 0.0 0.0 0.0 0.0 0.0 
391.207088582 736.184 -1203.78912358 -178.319676861 -56.5463697472 179.191984444 -1.87517 0.436514 3.58203 -1.86806 0.207847 3.60251 -1.84794 -0.669372 3.54594 -1.86547 -0.101336 3.60707 1.82983 3.7607 -15.1397 3.08805 19.3123 -16.6515 -0.0 0.0 -0.0 2.48999 4.66543 5.13394 -3.80652 11.0304 62.163 0.754484 -20.4932 0.136388 16.7314 0.283097 -2.11096 1.13216 -8.04477 4.23265 -0.0 0.0 -0.0 9.78983 25.41 -18.4559 -3.44697 -9.49029 -68.1488 0.39838 11.1638 -0.0389346 -2.17648 0.0817535 -0.265886 1.37055 23.9749 1.20584 0.0 0.0 0.0 6.78536 23.9838 3.15332 -1.68496 0.0657014 0.250226 18.8694 6.29742 -2.58991 -6.57475 0.0 0.0 -0.0 0.0 -0.0 2.71766 -17.5589 -3.8239 5.11706 0.244283 0.746802 9.78163 0.128453 1.40517 -26.4123 0.0 0.0 0.0 0.0 0.0 
391.206549707 736.184 -1203.78940754 -178.321747573 -56.4996611705 179.189501896 -1.87517 0.436514 3.58203 -1.86806 0.207847 3.60251 -1.84794 -0.669372 3.54594 -1.86547 -0.101336 3.60707 1.82983 3.7607 -15.1397 3.08805 19.3123 -16.6515 -0.0 0.0 -0.0 2.48999 4.66543 5.13394 -3.80652 11.0304 62.163 0.754484 -20.4932 0.136388 16.7314 0.283097 -2.11096 1.13216 -8.04477 4.23265 -0.0 0.0 -0.0 9.78983 25.41 -18.4559 -3.44697 -9.49029 -68.1488 0.39838 11.1638 -0.0389346 -2.17648 0.0817535 -0.265886 1.37055 23.9749 1.20584 0.0 0.0 0.0 6.78536 23.9838 3.15332 -1.68496 0.0657014 0.250226 18.8694 6.29742 -2.58991 -6.57475 0.0 0.0 -0.0 0.0 -0.0 2.71766 -17.5589 -3.8239 5.11706 0.244283 0.746802 9.78163 0.128453 1.40517 -26.4123 0.0 0.0 0.0 0.0 0.0 
383.02972679 723.427 -1229.07089035 175.555355606 -48.5944914432 -178.808881984 -2.79402 0.44234 3.09325 -2.78873 0.24471 3.1151 -2.76873 -0.565009 3.07323 -2.7819 -0.0728063 3.12384 3.7234 5.30633 -10.4833 4.59444 18.1794 -11.6392 -0.0 0.0 -0.0 3.51458 -3.16598 6.58204 8.86896 -7.96014 51.357 0.518606 -14.408 0.0655526 18.6048 0.276145 -2.35013 3.25196 -12.1003 17.0017 -0.0 0.0 -0.0 -2.97582 27.7296 9.70932 10.7881 0.164292 -92.268 1.14648 29.5927 -0.302844 4.20921 -0.129171 0.522011 2.39382 27.041 -3.95002 0.0 0.0 0.0 12.37 6.47858 -7.24657 -23.5902 0.235762 3.58692 13.1575 9.07749 -1.84944 -3.69185 0.0 0.0 -0.0 0.0 -0.0 1.66345 -15.2524 -10.8763 -2.45514 -0.0932734 -0.365209 7.86108 0.278626 1.13729 -19.8965 0.0 0.0 0.0 0.0 0.0 
558.710669904 709.83 -1262.77872743 164.392620639 -62.7275230346 165.755689216 -3.70236 -0.332847 0.798047 -3.70209 -0.382952 0.775252 -3.70724 -0.580049 0.641262 -3.7075 -0.471497 0.724818 2.12388 2.83296 -0.0640049 2.1472 5.02436 0.157998 -0.0 0.0 -0.0 3.33004 -21.8572 4.6551 11.835 -4.4644 75.9994 0.397678 -11.1446 0.0387988 18.177 0.278422 -2.29553 3.45357 -10.4057 19.2248 -0.0 0.0 -0.0 5.03841 12.0321 -9.13678 -42.737 71.8494 -45.6412 0.702505 19.188 -0.118745 8.56618 -0.222124 1.07068 4.86367 25.9147 -20.7591 0.0 0.0 0.0 -3.64743 -4.03649 6.44841 -16.9559 0.319458 2.57295 20.7299 10.6747 -2.82639 15.0543 -0.0 -0.0 -0.0 0.0 -0.0 17.2832 -10.5819 -0.0413358 -23.2193 -0.243536 -3.53054 26.21 -8.53935 3.47179 -8.11778 0.0 0.0 0.0 0.0 0.0 
561.20029294 709.821 -1268.67547067 160.712948746 -68.2198909894 161.105440687 -3.86821 -0.359447 0.815417 -3.86793 -0.410604 0.790894 -3.87359 -0.612803 0.646982 -3.87382 -0.502937 0.73564 1.93592 2.68698 0.261099 1.95323 4.50127 0.510119 -0.0 0.0 -0.0 3.19834 -23.4038 4.21639 12.3254 -4.11282 76.4585 0.42027 -11.7606 0.0432848 18.8713 0.274521 -2.38413 3.50639 -10.3118 19.6458 -0.0 0.0 -0.0 5.33964 11.665 -9.79554 -44.8486 71.3893 -43.8181 0.691381 18.9059 -0.115115 8.55606 -0.221957 1.0694 4.922 25.8177 -21.2159 0.0 0.0 0.0 -4.20002 -4.69389 6.16734 -17.6303 0.316319 2.67638 20.5416 9.87092 -2.80094 14.9637 -0.0 -0.0 -0.0 0.0 -0.0 19.3494 -8.69331 0.522107 -23.6822 -0.233777 -3.60091 26.9594 -8.41175 3.55652 -7.93862 0.0 0.0 0.0 0.0 0.0 
566.057200232 711.518 -1273.4930164 153.280194637 -73.7741598063 153.378124185 -3.87371 -0.423386 0.748101 -3.87352 -0.47013 0.719645 -3.87956 -0.650428 0.562012 -3.87957 -0.553507 0.65768 1.8052 2.59297 0.529403 1.81909 4.11559 0.800646 -0.0 0.0 -0.0 2.8018 -24.7956 3.21555 12.984 -3.93986 76.0954 0.439557 -12.2843 0.0473023 19.3544 0.271173 -2.44575 3.54315 -10.2601 19.933 -0.0 0.0 -0.0 5.25616 11.4469 -9.63347 -47.7166 70.6091 -41.3721 0.672893 18.4349 -0.109197 8.55293 -0.221905 1.069 4.96555 25.7442 -21.5586 0.0 0.0 0.0 -4.5753 -5.02317 6.05286 -18.1143 0.313316 2.75058 20.3236 9.25719 -2.7727 14.8733 -0.0 -0.0 -0.0 0.0 -0.0 21.4757 -7.41497 0.319484 -23.967 -0.227491 -3.64415 27.4851 -8.3207 3.61535 -7.81297 0.0 0.0 0.0 0.0 0.0 
565.83832055 708.798 -1281.40768525 139.774772771 -79.3358486661 139.495096012 -3.90761 -0.604781 0.680993 -3.90759 -0.646887 0.64113 -3.91527 -0.798935 0.437275 -3.91481 -0.719849 0.557966 1.60244 2.48835 0.744308 1.61387 3.75942 1.03183 -0.0 0.0 -0.0 2.57371 -26.6957 2.5231 13.486 -3.84313 75.8171 0.468052 -13.0541 0.0535521 19.7276 0.268232 -2.49332 3.571 -10.2546 20.135 -0.0 0.0 -0.0 5.05054 10.8197 -9.24117 -50.1668 69.8676 -39.9563 0.660442 18.1163 -0.105292 8.5506 -0.221866 1.06871 5.00504 25.7557 -21.8214 0.0 0.0 0.0 -5.96196 -4.90993 7.07321 -17.997 0.314101 2.73261 20.1853 8.71968 -2.75473 14.8036 -0.0 -0.0 -0.0 0.0 -0.0 25.1981 -6.44835 -0.704242 -23.7932 -0.231353 -3.61776 27.8477 -8.19707 3.65551 -7.72318 0.0 0.0 0.0 0.0 0.0 
568.088500293 704.648 -1286.30814097 127.681437625 -82.0989419829 127.258944005 -3.94535 -0.596292 0.61502 -3.94536 -0.634218 0.575831 -3.95218 -0.768945 0.377534 -3.9517 -0.69967 0.49424 0.424639 1.68055 1.38494 0.430613 1.84454 1.6664 -0.0 0.0 -0.0 2.67344 -28.8977 2.50634 14.3936 -3.5659 76.4264 0.499634 -13.9018 0.060913 20.5386 0.260772 -2.59664 3.52151 -10.2805 19.7685 -0.0 0.0 -0.0 4.9227 8.3926 -9.12203 -48.6559 71.052 -42.6759 0.658663 18.0707 -0.104739 7.00896 -0.193699 0.8738 4.91796 24.7235 -21.8634 0.0 0.0 0.0 -6.44811 -3.87929 7.76111 -11.5947 0.301103 1.75089 18.0147 8.81673 -2.48252 10.7942 -0.0 -0.0 -0.0 0.0 -0.0 28.7633 -1.89507 -1.13679 -28.7454 -0.0900702 -4.36441 32.9222 -6.26741 4.19244 -6.627 0.0 0.0 0.0 0.0 0.0 
570.311142585 702.041 -1291.97255271 119.292074942 -83.4387279344 118.227744806 -3.85729 -0.591319 0.594111 -3.85731 -0.627925 0.55528 -3.86383 -0.756647 0.360701 -3.86335 -0.690185 0.475676 1.11701 1.1805 1.83849 1.12568 0.556791 2.11264 -0.0 0.0 -0.0 2.61708 -30.3502 2.22841 15.8116 -3.5234 76.4973 0.568193 -15.7203 0.0784409 21.7638 0.24673 -2.75251 3.4835 -10.1922 19.5383 -0.0 0.0 -0.0 4.50567 7.33675 -8.3252 -50.0449 71.1565 -41.6915 0.652071 17.9014 -0.102704 6.05468 -0.173638 0.753551 4.87177 24.4911 -21.6876 0.0 0.0 0.0 -7.10788 -2.58249 8.52621 -8.47937 0.255147 1.27513 18.8158 8.89223 -2.58393 8.69137 -0.0 -0.0 -0.0 0.0 -0.0 31.364 1.57965 -1.87681 -29.6722 -0.0564834 -4.50266 33.4925 -1.96648 4.25895 -5.85265 0.0 0.0 0.0 0.0 0.0 
615.276480215 678.647 -1268.29193207 160.208841523 -76.4084603093 158.938390653 -3.63072 0.106102 0.382573 -3.63064 0.0815431 0.388549 -3.62995 -0.0270735 0.396089 -3.63017 0.0358207 0.395394 1.43537 0.0601697 2.12692 1.45288 -1.6715 2.33212 -0.0 0.0 -0.0 2.15062 -27.5544 1.5146 23.5583 -4.88413 76.3337 0.727798 -19.8257 0.127191 24.8926 0.195777 -3.14888 3.65029 -11.1061 20.2995 -0.0 0.0 -0.0 4.33028 2.65244 -8.23101 -56.3694 74.4158 -35.8586 0.617368 17.0051 -0.0922953 0.693927 -0.0239328 0.0853936 4.57875 25.255 -19.2273 0.0 0.0 0.0 -7.77326 2.45383 10.2653 -12.1416 0.306498 1.83463 31.7786 12.8295 -4.10464 7.95031 -0.0 -0.0 -0.0 0.0 -0.0 39.2337 13.7002 -4.14736 -26.5951 -0.15935 -4.04168 13.5575 9.69359 1.99248 -6.8245 0.0 0.0 0.0 0.0 0.0 
621.973834309 683.659 -1262.30546996 165.603639806 -72.6624102644 164.303786095 -3.66264 0.548128 0.546321 -3.66262 0.512254 0.580092 -3.65708 0.335107 0.697575 -3.65749 0.441068 0.6359 1.18324 0.00169985 2.28605 1.20384 -1.90082 2.49363 -0.0 0.0 -0.0 1.81939 -25.7897 0.981721 24.4178 -5.18961 75.9455 0.757454 -20.5671 0.13743 25.1055 0.191525 -3.17574 3.75333 -11.4156 20.8903 -0.0 0.0 -0.0 4.53115 1.57482 -8.67997 -57.0821 74.9933 -35.2683 0.608057 16.7631 -0.0895911 -0.391657 0.0139642 -0.0480688 4.48893 25.3503 -18.5642 0.0 0.0 0.0 -7.42144 3.47808 10.3396 -13.526 0.31658 2.04679 34.9722 13.8997 -4.44219 8.13337 -0.0 -0.0 -0.0 0.0 -0.0 39.9794 15.048 -5.57986 -23.1787 -0.244364 -3.52437 8.32644 11.6601 1.26374 -7.45349 0.0 0.0 0.0 0.0 0.0 
641.829253124 678.928 -1257.35608275 174.083714848 -66.0067296357 173.220775355 -3.7049 0.948339 0.589989 -3.70516 0.908875 0.64914 -3.69456 0.69746 0.872346 -3.69467 0.826474 0.751253 1.47531 0.124934 2.07351 1.49146 -1.5137 2.28042 -0.0 0.0 -0.0 1.13508 -20.827 0.0234848 25.6942 -6.13129 76.2825 0.912364 -24.3207 0.196603 24.3748 0.205704 -3.08348 4.01341 -12.1304 22.4183 -0.0 0.0 -0.0 5.34542 4.84502 -10.1667 -53.7724 75.05 -38.3655 0.399897 11.2053 -0.0392291 1.02271 -0.0349099 0.125951 4.228 26.2971 -16.2657 0.0 0.0 0.0 -5.51244 7.73733 9.8882 -15.3773 0.322046 2.33077 39.0439 12.7325 -4.81659 9.18984 -0.0 -0.0 -0.0 0.0 -0.0 42.2204 17.6678 -5.69363 -15.5851 -0.322087 -2.36266 -3.37324 11.6391 -0.529845 -9.33463 0.0 0.0 0.0 0.0 0.0 
